@startuml Complete diagram


namespace eMSP_APP <<frame>>{
   	interface OSInterface{
    	+ requestHandler(request)
		+ start(Activity)
		+ notify(msg)
   	}
   
   	interface MainInterface{
		+ searchComitted(search_string)
		+ bookNowButtonPressed()
		+ chargeButtonPressed()
		+ chargingStationSelected(CS)
		+ bookForChargeButtonPressed()
		+ CSSelected()
		- isLogged()
		- updatePosition(search_string)
		- locateUser()
		- insertMapMarkers(CS)
	}	

	interface ChargingInterface{
		+ committToken(token)
		+ setBill(total)
		- parseToken()
		- prepareBill()
	}

	interface SigningInterface{
		+ loginButtonPressed()
		+ loginForm(user,psw)
		+ registerButtonPressed()
		+ registerForm(data)
		- validateInput(data)
	}

	interface ReservationInterface{
		+ reservationForm(reservation)
		- validateInput(data)
		- calculateFee()
	}

	interface NotificationInterface{
		+ serviceStartup()
	}

	OSInterface<|..|>MainInterface
	OSInterface<|..|>ChargingInterface
	OSInterface<|..|>SigningInterface
	OSInterface<|..|>ReservationInterface
	OSInterface<|..NotificationInterface	
}




namespace eMSP_Server <<frame>>{
   	interface eMSP_API{
		+ requestHandler(request)
   	}
   
   	interface RegistrationInterface{
		+ login(user, psw)
		+ register(data)
		+ verifyMail(mail)
	}	

	interface NotificationInterface{
		+ missedReservation(token)
		+ chargeCompleted(token)
		+ finalBilling(token, total)
		+ getNotifications(user)
	}

	

	eMSP_API..|>RegistrationInterface
	eMSP_API..|>NotificationInterface
}



namespace CPMS_Server <<frame>>{
   	interface CPMS_API{
		+ requestSender(request)
		+ requestHandler(request)
   	}

	interface GUIInterface{
		+ changeDSOSelected()
		+ showDSOList()
		+ filterDSOs(filter)
		+ changeDSO(form)
		+ loginForm(user,psw)
		+ batteryTarget(val)

	}
   
   	interface PowerManagerInterface{
		+ getDSOs()
		+ filterDSOs(filter)
		+ requestDSOChange(form)	
		+ getBatteryInfo()
		+ setBatteryTarget(val)
		- applyFilter(list, filter)
		- batteryMonitoring()
		- selectBestDSO()
	}	

	interface ReservationInterface{
		+ requestReservation(reservation)
		+ cancelReservation(reservation)
	}

	interface InfoInterface{
		+ getInfo()

	}

	interface AuthorizationInterface{
		+ login(user,psw)
		- verifyInput(user,psw)
	}

	

	interface ChargingInterface{
		+ checkReservation(token)
	}

	
	CPMS_API..|>ReservationInterface
	CPMS_API..|>InfoInterface
	CPMS_API..|>ChargingInterface
	

	GUIInterface..|>PowerManagerInterface
	GUIInterface..|>AuthorizationInterface




}

package Users_DBMS <<Database>>{
		interface Users_DBMS_API{
			+ find(user,psw)
			+ insert(User)
			+ update(User)
		}
	}


package Reservations_DBMS <<Database>>{
	interface Reservations_DBMS_API{
		+ find(reservation)
		+ insert(reservation)
		+ remove(reservation)
	}
}

interface CPOs_API{
	+ getCPMSs(loc) 
	+ verifyUserCredentials(user, psw)
}

interface DSOs_API{
	+ getDSOs()
	+ stipulateContract(DSO)
}

interface Payment_API{
	+ pay(info,bill)
	+ verifyPaymentMethod()
}

interface ChargingColumn_API{
	+ getFreeSockets()
	+ getChargingStatus(socket)
	+ isSocketPlugged()
	+ isSocketUnplugged(socket)
}

interface BatteryPack_API{
	+ getStatus()
	+ getLevel()
	+ getEnergyValue()
	+ fillBattery()
	+ setDischarge()
	+ setCharge()
}	

interface Switcher_API{
	+ startBatterySupply()
	+ startDSOSupply()
	+ stopSupply(column,socket)
}


eMSP_APP.OSInterface..|>eMSP_Server.eMSP_API
eMSP_APP.OSInterface..|>CPMS_Server.CPMS_API
eMSP_APP.OSInterface..|>CPOs_API
eMSP_APP.OSInterface..|>Payment_API


eMSP_Server.RegistrationInterface..|>Users_DBMS_API
eMSP_Server.RegistrationInterface..|>Payment_API

CPMS_Server.CPMS_API..|>eMSP_Server.eMSP_API

CPMS_Server.InfoInterface..|>Reservations_DBMS_API

CPMS_Server.PowerManagerInterface..|>ChargingColumn_API
CPMS_Server.PowerManagerInterface..|>BatteryPack_API
CPMS_Server.PowerManagerInterface..|>Switcher_API
CPMS_Server.PowerManagerInterface..|>DSOs_API

CPMS_Server.ChargingInterface..|>ChargingColumn_API
CPMS_Server.ChargingInterface..|>Switcher_API
CPMS_Server.ChargingInterface..|>Reservations_DBMS_API

CPMS_Server.ReservationInterface..l|>Reservations_DBMS_API

CPMS_Server.AuthorizationInterface..|>CPOs_API

@enduml

